<svg height="441pt" viewBox="-48 0 441 441.72" width="441pt" xmlns="http://www.w3.org/2000/svg"><path d="m346.160156 411.601562c.511719 16.570313-13.050781 30.117188-29.609375 30.117188h-276.191406c-22.0625-.0625-39.933594-17.933594-40-40v-361.71875c.066406-22.066406 17.9375-39.9335938 40-40h265.800781c22.070313.0546875 39.945313 17.929688 40 40zm-40.191406-42.25v-330.660156h-265.398438v330.660156zm0 0" fill="#00acea"/><path d="m253.339844 196.058594c-5.78125.03125-10.445313 4.734375-10.429688 10.515625.015625 5.777343 4.703125 10.457031 10.484375 10.457031s10.46875-4.679688 10.484375-10.457031c.015625-5.78125-4.648437-10.484375-10.429687-10.515625zm52.628906-157.367188v330.660156h-265.398438v-330.660156zm0 0" fill="#00efd1"/><path d="m225.660156 174.179688v27.640624c-37.195312 13.839844-78.125 13.839844-115.320312 0v-27.640624c37.195312 13.839843 78.125 13.839843 115.320312 0zm0 0" fill="#f4b844"/><path d="m225.660156 136.628906v37.550782c-37.195312 13.839843-78.125 13.839843-115.320312 0v-37.550782l57.660156 22.441406zm0 0" fill="#00acea"/><path d="m185.820312 413.03125h-25.101562c-4.417969 0-8-3.582031-8-8s3.582031-8 8-8h25.101562c4.417969 0 8 3.582031 8 8s-3.582031 8-8 8zm0 0" fill="#00efd1"/><g fill="#fedb41"><path d="m253.339844 204.058594c-4.417969 0-8-3.582032-8-8v-69.507813c0-4.417969 3.582031-8 8-8 4.417968 0 8 3.582031 8 8v69.507813c0 4.417968-3.582032 8-8 8zm0 0"/><path d="m227.179688 281.859375h-107.820313c-4.417969 0-8-3.582031-8-8s3.582031-8 8-8h107.820313c4.417968 0 8 3.582031 8 8s-3.582032 8-8 8zm0 0"/><path d="m227.179688 305.539062h-107.820313c-4.417969 0-8-3.582031-8-8 0-4.417968 3.582031-8 8-8h107.820313c4.417968 0 8 3.582032 8 8 0 4.417969-3.582032 8-8 8zm0 0"/><path d="m227.179688 329.230469h-107.820313c-4.417969 0-8-3.582031-8-8s3.582031-8 8-8h107.820313c4.417968 0 8 3.582031 8 8s-3.582032 8-8 8zm0 0"/><path d="m156.121094 258.171875h-36.761719c-4.417969 0-8-3.582031-8-8 0-4.421875 3.582031-8 8-8h36.761719c4.417968 0 8 3.578125 8 8 0 4.417969-3.582032 8-8 8zm0 0"/></g><path d="m253.449219 224.910156c-10.136719 0-18.371094-8.191406-18.425781-18.328125-.050782-10.140625 8.09375-18.414062 18.234374-18.519531h.191407c10.175781 0 18.425781 8.246094 18.425781 18.421875s-8.25 18.425781-18.425781 18.425781zm0 0" fill="#f4b844"/><path d="m110.339844 136.628906-27.679688-10.769531 85.339844-31.371094 85.339844 31.371094-27.679688 10.769531-57.660156 22.441406zm0 0" fill="#fedb41"/></svg>